<svg xmlns="http://www.w3.org/2000/svg" xmlns:xlink="http://www.w3.org/1999/xlink" width="95" height="95" version="1.1" viewBox="0 0 95 95"><title>calc</title><desc>Created with Sketch.</desc><g id="Design-System" fill="none" fill-rule="evenodd" stroke="none" stroke-width="1"><g id="Tangelo" transform="translate(-1713.000000, -5852.000000)"><g id="calc" transform="translate(1713.000000, 5852.000000)"><circle id="Oval" cx="47.202" cy="47.26" r="47.141" fill="#F37121" fill-rule="nonzero"/><g id="Group" transform="translate(18.924418, 24.052325)"><g id="Path"><path fill="#FDC400" fill-rule="nonzero" d="M53.8015106,26.7688948 C50.9848246,23.2623833 40.9243597,11.8222672 28.5074994,11.8222672 C16.0906392,11.8222672 6.0301743,23.2623833 3.21348831,26.7688948 C2.4088953,27.745639 2.4088953,29.1838948 3.21348831,30.2180227 C6.0301743,33.7245342 16.0906392,45.1646503 28.5074994,45.1646503 C40.9243597,45.1646503 50.9848246,33.7245342 53.8015106,30.2180227 C54.6061036,29.2400576 54.6061036,27.8030227 53.8015106,26.7688948 Z"/><line x1=".059" x2="6.048" y1="12.505" y2="17.64" stroke="#60179C" stroke-linecap="round" stroke-width="4.32"/><line x1="14.38" x2="17.407" y1="3.11" y2="10.397" stroke="#60179C" stroke-linecap="round" stroke-width="4.32"/><line x1="57.114" x2="51.124" y1="12.505" y2="17.64" stroke="#60179C" stroke-linecap="round" stroke-width="4.32"/><line x1="42.794" x2="39.767" y1="3.11" y2="10.397" stroke="#60179C" stroke-linecap="round" stroke-width="4.32"/><line x1="29.97" x2="29.543" y1=".073" y2="7.952" stroke="#60179C" stroke-linecap="round" stroke-width="4.32"/></g><path id="Path" fill="#60179C" fill-rule="nonzero" d="M28.5087204,18.4067438 C22.9437205,18.4067438 18.4226159,22.9278484 18.4226159,28.4928483 C18.4226159,34.0578482 22.9437205,38.5789527 28.5087204,38.5789527 C34.0737203,38.5789527 38.5948248,34.0578482 38.5948248,28.4928483 C38.5936039,22.9278484 34.0724993,18.4067438 28.5087204,18.4067438 Z"/><g transform="translate(24.052325, 23.563953)"><circle id="Oval" cx="4.543" cy="1.496" r="1.419" fill="#FFF" fill-rule="nonzero"/><circle id="Oval" cx="4.543" cy="8.783" r="1.419" fill="#FFF" fill-rule="nonzero"/><line id="Path" x1=".087" x2="9.113" y1="4.992" y2="4.992" stroke="#FFF" stroke-linecap="round" stroke-width="2.4"/></g></g></g></g></g></svg>