<svg xmlns="http://www.w3.org/2000/svg" xmlns:xlink="http://www.w3.org/1999/xlink" width="95" height="95" version="1.1" viewBox="0 0 95 95"><title>high achiever</title><desc>Created with Sketch.</desc><g id="Design-System" fill="none" fill-rule="evenodd" stroke="none" stroke-width="1"><g id="Tangelo" fill-rule="nonzero" transform="translate(-1531.000000, -5637.000000)"><g id="high-achiever" transform="translate(1531.000000, 5637.000000)"><circle id="Oval" cx="47.141" cy="47.141" r="47.141" fill="#F37121"/><g id="Group" transform="translate(16.482558, 14.162790)"><g transform="translate(10.866279, 5.982558)"><polygon id="Path" fill="#60179C" points="7.521 20.604 7.459 59.79 19.441 51.581 31.992 60.185 32.284 21.199"/><circle id="Oval" cx="19.996" cy="19.951" r="19.885" fill="#FCC400"/><circle id="Oval" cx="19.996" cy="19.951" r="16.881" fill="#F79800"/><circle id="Oval" cx="19.938" cy="19.982" r="14.473" fill="#FFF"/><path id="Path" fill="#FCC400" d="M13.5816276,28.8090692 L14.5742439,22.12936 C14.590116,22.0194763 14.5522672,21.9083717 14.4704648,21.832674 L9.53058121,17.2285462 C9.32546493,17.0380811 9.429244,16.6949997 9.70517423,16.6486043 L16.3653485,15.5277904 C16.4752322,15.5094764 16.5680229,15.4386625 16.6156392,15.3373253 L19.4677322,9.21558121 C19.5861624,8.96162773 19.943895,8.95430215 20.0733136,9.20215098 L23.196453,15.1895927 C23.2477321,15.2884881 23.3441856,15.3544183 23.4552902,15.3690695 L30.1581971,16.1907555 C30.4353482,16.2249415 30.5537785,16.5619183 30.3584296,16.7621508 L25.6297669,21.5836042 C25.5516274,21.6629647 25.5186623,21.7752903 25.5394181,21.8839531 L26.8299413,28.5123832 C26.8836623,28.7870925 26.5991855,29.0031971 26.3476739,28.8786622 L20.3016275,25.8702902 C20.2027322,25.820232 20.0843019,25.8238948 19.9878484,25.8776158 L14.082209,29.1533715 C13.8343602,29.2901157 13.540116,29.0862204 13.5816276,28.8090692 Z"/></g><circle id="Oval" cx="1.383" cy="36.507" r="1.327" fill="#FCC400"/><circle id="Oval" cx="58.403" cy="15.922" r="1.2" fill="#F7F0DC"/><circle id="Oval" cx="30.863" cy="1.214" r="1.2" fill="#F7F0DC"/><circle id="Oval" cx="13.428" cy="43.094" r="1.2" fill="#F7F0DC"/><circle id="Oval" cx="56.423" cy="26.998" r="1.171" fill="#FCC400"/><circle id="Oval" cx="48.377" cy="7.337" r="1.349" fill="#FCC400"/><circle id="Oval" cx="4.273" cy="21.375" r="1.563" fill="#F7F0DC"/><polygon id="Path" fill="#FCC400" points="10.462 8.953 10.462 5.987 8.819 5.987 8.819 8.953 5.854 8.953 5.854 10.595 8.819 10.595 8.819 13.561 10.462 13.561 10.462 10.595 13.428 10.595 13.428 8.953"/><polygon id="Path" fill="#FCC400" points="53.495 42.024 53.495 38.164 51.356 38.164 51.356 42.024 47.495 42.024 47.495 44.165 51.356 44.165 51.356 48.025 53.495 48.025 53.495 44.165 57.356 44.165 57.356 42.024"/></g></g></g></g></svg>