<svg xmlns="http://www.w3.org/2000/svg" xmlns:xlink="http://www.w3.org/1999/xlink" width="95" height="95" version="1.1" viewBox="0 0 95 95"><title>thinker</title><desc>Created with Sketch.</desc><g id="Design-System" fill="none" fill-rule="evenodd" stroke="none" stroke-width="1"><g id="Tangelo" transform="translate(-2305.000000, -5637.000000)"><g id="thinker" transform="translate(2305.000000, 5637.000000)"><circle id="Oval" cx="47.176" cy="47.189" r="47.141" fill="#FDC400" fill-rule="nonzero"/><g id="Group-27" transform="translate(16.531395, 14.668256)"><path id="Path" fill="#60179C" fill-rule="nonzero" d="M35.4668016,53.1043594 L35.4668016,56.400871 C35.4668016,59.1369756 33.2581389,61.3456383 30.5220343,61.3456383 C27.7859297,61.3456383 25.5772669,59.1369756 25.5772669,56.400871 L25.5772669,53.1043594 C25.5772669,52.1813362 26.3024995,51.4561036 27.2255227,51.4561036 L33.8185458,51.4561036 C34.7415691,51.4561036 35.4668016,52.1813362 35.4668016,53.1043594 Z"/><path id="Path" fill="#F37121" fill-rule="nonzero" d="M30.5220343,11.8979649 C20.170988,11.8979649 12.3912207,20.2381391 12.3912207,30.0287785 C12.3912207,35.8965691 15.1932555,41.4017434 20.1050577,44.8630805 C21.4566275,45.8190689 22.2807554,47.5002898 22.2807554,49.3793013 L22.2807554,49.8078478 C22.2807554,52.5439524 24.4894181,54.7526152 27.2255227,54.7526152 L33.8185458,54.7526152 C36.5546504,54.7526152 38.7633132,52.5439524 38.7633132,49.8078478 L38.7633132,49.280406 C38.7633132,47.5002898 39.7193015,45.7861037 41.3675573,44.5334293 C45.9826735,41.0720922 48.6528479,35.7976737 48.6528479,30.0287785 C48.6528479,20.0733136 40.6423248,11.93093 30.5220343,11.8979649 Z"/><path id="Path" fill="#FFF" fill-rule="nonzero" d="M57.0040105,31.6770343 L53.5976152,31.6770343 C52.6868013,31.6770343 51.9493594,30.9395924 51.9493594,30.0287785 C51.9493594,29.1179645 52.6868013,28.3805227 53.5976152,28.3805227 L57.0040105,28.3805227 C57.9148244,28.3805227 58.6522663,29.1179645 58.6522663,30.0287785 C58.6522663,30.9395924 57.9148244,31.6770343 57.0040105,31.6770343 Z"/><path id="Path" fill="#FFF" fill-rule="nonzero" d="M7.44645334,31.6770343 L4.04005806,31.6770343 C3.12924412,31.6770343 2.39180228,30.9395924 2.39180228,30.0287785 C2.39180228,29.1179645 3.12924412,28.3805227 4.04005806,28.3805227 L7.44645334,28.3805227 C8.35726728,28.3805227 9.09470912,29.1179645 9.09470912,30.0287785 C9.09470912,30.9395924 8.35726728,31.6770343 7.44645334,31.6770343 Z"/><path id="Path" fill="#FFF" fill-rule="nonzero" d="M45.6737782,14.8770346 C45.0303479,14.2336044 45.0303479,13.189709 45.6737782,12.5462788 L48.0045339,10.2155231 C48.6479641,9.57209283 49.6918595,9.57209283 50.3352897,10.2155231 C50.9787199,10.8589533 50.9787199,11.9028486 50.3352897,12.5462788 L48.0045339,14.8770346 C47.3598828,15.5204648 46.3172084,15.5204648 45.6737782,14.8770346 Z"/><path id="Path" fill="#FFF" fill-rule="nonzero" d="M31.1117436,8.95674401 C30.2009296,8.95674401 29.4634878,8.21930216 29.4634878,7.30848823 L29.4634878,4.01197666 C29.4634878,3.10116273 30.2009296,2.36372088 31.1117436,2.36372088 C32.0225575,2.36372088 32.7599993,3.10116273 32.7599993,4.01197666 L32.7599993,7.30848823 C32.7599993,8.21930216 32.0225575,8.95674401 31.1117436,8.95674401 Z"/><path id="Path" fill="#FFF" fill-rule="nonzero" d="M13.0395346,14.8770346 L10.7087789,12.5462788 C10.0653486,11.9028486 10.0653486,10.8589533 10.7087789,10.2155231 C11.3522091,9.57209283 12.3961044,9.57209283 13.0395346,10.2155231 L15.3702904,12.5462788 C16.0137206,13.189709 16.0137206,14.2336044 15.3702904,14.8770346 C14.7268602,15.5204648 13.6841858,15.5204648 13.0395346,14.8770346 Z"/><path id="Path" fill="#FFF" fill-rule="nonzero" d="M29.2437203,20.4518019 L26.4087204,32.9785459 C26.3354646,33.3045342 26.608953,33.6024412 26.939825,33.5572668 L28.3695343,33.360697 C28.707732,33.3143017 28.9848831,33.6280807 28.8957552,33.9577319 L26.6065111,42.4798247 C26.5405809,42.7240108 26.8677902,42.8729643 27.0081971,42.6629643 L36.072383,29.1997669 C36.3031388,28.8579064 36.019883,28.4037204 35.6108714,28.4598832 L32.888197,28.8347087 C32.5133714,28.8859878 32.2301156,28.5026157 32.3900575,28.1595343 L35.9576156,21.0903484 C36.2494179,20.5116275 35.8123249,19.8315694 35.1640109,19.8584298 L29.6429645,20.0843019 C29.4476157,20.1111624 29.2876738,20.257674 29.2437203,20.4518019 Z"/><circle id="Oval" cx="62.002" cy="30.451" r="1" fill="#FFF" fill-rule="nonzero"/><circle id="Oval" cx="16.96" cy="1.106" r="1.106" fill="#F37121" fill-rule="nonzero"/><circle id="Oval" cx="9.095" cy="40.226" r="1" fill="#F37121" fill-rule="nonzero"/><circle id="Oval" cx=".64" cy="21.322" r="1" fill="#FFF" fill-rule="nonzero"/><circle id="Oval" cx="45.19" cy="1.106" r="1" fill="#FFF" fill-rule="nonzero"/><circle id="Oval" cx="46.791" cy="45.089" r="1" fill="#FFF" fill-rule="nonzero"/><circle id="Oval" cx="59.42" cy="17.005" r="1" fill="#F37121" fill-rule="nonzero"/><circle id="Oval" cx="57.871" cy="40.226" r="1" fill="#F37121" fill-rule="nonzero"/><line id="Path" x1="20.53" x2="40.882" y1="47.188" y2="47.188" stroke="#FDC400" stroke-linecap="round" stroke-width="3.84"/><line id="Path" x1="20.53" x2="40.882" y1="51.516" y2="51.516" stroke="#FDC400" stroke-linecap="round" stroke-width="1.92"/></g></g></g></g></svg>