<svg xmlns="http://www.w3.org/2000/svg" xmlns:xlink="http://www.w3.org/1999/xlink" width="105" height="105" version="1.1" viewBox="0 0 105 105"><title>788158AA-A940-47B9-8AB1-9472ED370CAF</title><desc>Created with sketchtool.</desc><g id="Page-1" fill="none" fill-rule="evenodd" stroke="none" stroke-width="1"><g id="Teaching-Methods" transform="translate(-938.000000, -520.000000)"><g id="Group" transform="translate(938.000000, 520.000000)"><circle id="Oval" cx="52.171" cy="52.234" r="52.104" fill="#F37121" fill-rule="nonzero"/><g transform="translate(20.916462, 26.584149)"><g id="Path"><path fill="#FDC400" fill-rule="nonzero" d="M59.4648275,29.5866732 C56.3516482,25.7110552 45.232187,13.0667164 31.5082888,13.0667164 C17.7843907,13.0667164 6.66492949,25.7110552 3.55175024,29.5866732 C2.66246323,30.6662326 2.66246323,32.2558837 3.55175024,33.3988671 C6.66492949,37.2744852 17.7843907,49.918824 31.5082888,49.918824 C45.232187,49.918824 56.3516482,37.2744852 59.4648275,33.3988671 C60.3541145,32.3179584 60.3541145,30.7296567 59.4648275,29.5866732 Z"/><line x1=".065" x2="6.685" y1="13.821" y2="19.497" stroke="#60179C" stroke-linecap="round" stroke-width="4.775"/><line x1="15.894" x2="19.239" y1="3.437" y2="11.492" stroke="#60179C" stroke-linecap="round" stroke-width="4.775"/><line x1="63.126" x2="56.505" y1="13.821" y2="19.497" stroke="#60179C" stroke-linecap="round" stroke-width="4.775"/><line x1="47.298" x2="43.953" y1="3.437" y2="11.492" stroke="#60179C" stroke-linecap="round" stroke-width="4.775"/><line x1="33.125" x2="32.653" y1=".081" y2="8.789" stroke="#60179C" stroke-linecap="round" stroke-width="4.775"/></g><path id="Path" fill="#60179C" fill-rule="nonzero" d="M31.5096383,20.3442958 C25.3588489,20.3442958 20.3618386,25.3413061 20.3618386,31.4920955 C20.3618386,37.6428848 25.3588489,42.6398951 31.5096383,42.6398951 C37.6604276,42.6398951 42.657438,37.6428848 42.657438,31.4920955 C42.6560885,25.3413061 37.6590782,20.3442958 31.5096383,20.3442958 Z"/><g transform="translate(26.584149, 26.044369)"><circle id="Oval" cx="5.021" cy="1.653" r="1.568" fill="#FFF" fill-rule="nonzero"/><circle id="Oval" cx="5.021" cy="9.708" r="1.568" fill="#FFF" fill-rule="nonzero"/><line id="Path" x1=".096" x2="10.072" y1="5.518" y2="5.518" stroke="#FFF" stroke-linecap="round" stroke-width="2.653"/></g></g></g></g></g></svg>